<?xml version="1.0" encoding="UTF-8"?>
<svg id="Layer_2" xmlns="http://www.w3.org/2000/svg" version="1.1" xmlns:xlink="http://www.w3.org/1999/xlink" viewBox="0 0 900 600">
  <!-- Generator: Adobe Illustrator 29.3.1, SVG Export Plug-In . SVG Version: 2.1.0 Build 151)  -->
  <defs>
    <style>
      .st0 {
        fill: #637ce5;
      }

      .st1 {
        fill: #5168af;
      }

      .st2 {
        fill: none;
      }

      .st3 {
        fill: #4768c4;
      }

      .st4 {
        fill: #a1b1ff;
      }

      .st5 {
        fill: #ff5f7a;
      }

      .st6 {
        fill: #fff;
        isolation: isolate;
        opacity: 0;
      }

      .st7 {
        fill: #ffa769;
      }

      .st8 {
        fill: #606dd6;
      }

      .st9 {
        fill: #324c84;
      }

      .st10 {
        fill: #294196;
      }

      .st11 {
        fill: #ccd7ff;
      }

      .st12 {
        clip-path: url(#clippath);
      }

      .st13 {
        fill: #a139ee;
      }

      .st14 {
        fill: #7a8ffa;
      }
    </style>
    <clipPath id="clippath">
      <rect class="st2" width="900" height="600"/>
    </clipPath>
  </defs>
  <g id="bg">
    <g class="st12">
      <g>
        <polygon class="st6" points="-21.8 2.1 159.1 585.8 498.7 566.9 273.4 25.6 -21.8 2.1"/>
        <path class="st1" d="M936-7.8H-14.7l-177.4,571.4h1264.5L936-7.8h0ZM954.6,519.4H-62.7c-3,0-5.8-.3-8.5-1-16.5-3.8-27-18.5-21.8-33.1l52.1-188.8,6.5-18.2,23.6-65.8,27.2-75.6,21.8-60.7c4-11.2,25.4-45,39.4-45l749.4,2.9c14,0,22.7,30.9,26.7,42.1l11.3,31.4,4,11h0l7.7,21.5,6.8,18.8,2.8,7.7,7.9,22.1,21.2,59,8,22.3,3.5,9.7,9.5,26.3,48.7,179.4c6.1,17-9.1,34.1-30.3,34.1h0Z"/>
        <polygon class="st4" points="-428.7 561.9 1299.6 561.9 1177.6 601.8 -306.6 601.8 -428.7 561.9"/>
        <polygon class="st11" points="-327.2 571.2 -372.1 571.2 -391.8 565.3 -345.9 565.3 -327.2 571.2"/>
        <polygon class="st11" points="-301.4 579.4 -344.7 579.4 -363.2 573.9 -318.9 573.9 -301.4 579.4"/>
        <polygon class="st11" points="-277.3 587.1 -319.2 587.1 -336.4 581.9 -293.6 581.9 -277.3 587.1"/>
        <polygon class="st11" points="-254.7 594.3 -295.2 594.3 -311.4 589.4 -270 589.4 -254.7 594.3"/>
        <polygon class="st11" points="-252.1 571.2 -296.9 571.2 -314.8 565.3 -268.9 565.3 -252.1 571.2"/>
        <polygon class="st11" points="-228.8 579.4 -272.1 579.4 -288.8 573.9 -244.5 573.9 -228.8 579.4"/>
        <polygon class="st11" points="-207 587.1 -248.9 587.1 -264.5 581.9 -221.7 581.9 -207 587.1"/>
        <polygon class="st11" points="-186.6 594.3 -227.1 594.3 -241.8 589.4 -200.4 589.4 -186.6 594.3"/>
        <polygon class="st11" points="-176.9 571.2 -221.7 571.2 -237.8 565.3 -191.9 565.3 -176.9 571.2"/>
        <polygon class="st11" points="-156.1 579.4 -199.4 579.4 -214.4 573.9 -170.1 573.9 -156.1 579.4"/>
        <polygon class="st11" points="-136.7 587.1 -178.6 587.1 -192.6 581.9 -149.8 581.9 -136.7 587.1"/>
        <polygon class="st11" points="-118.5 594.3 -159.1 594.3 -172.2 589.4 -130.8 589.4 -118.5 594.3"/>
        <polygon class="st11" points="-101.7 571.2 -146.5 571.2 -160.7 565.3 -114.9 565.3 -101.7 571.2"/>
        <polygon class="st11" points="-83.4 579.4 -126.7 579.4 -140 573.9 -95.7 573.9 -83.4 579.4"/>
        <polygon class="st11" points="-66.4 587.1 -108.3 587.1 -120.7 581.9 -77.9 581.9 -66.4 587.1"/>
        <polygon class="st11" points="-50.4 594.3 -91 594.3 -102.7 589.4 -61.2 589.4 -50.4 594.3"/>
        <polygon class="st11" points="-26.5 571.2 -71.3 571.2 -83.7 565.3 -37.8 565.3 -26.5 571.2"/>
        <polygon class="st11" points="-10.8 579.4 -54.1 579.4 -65.7 573.9 -21.4 573.9 -10.8 579.4"/>
        <polygon class="st11" points="3.9 587.1 -38 587.1 -48.8 581.9 -6 581.9 3.9 587.1"/>
        <polygon class="st11" points="17.7 594.3 -22.9 594.3 -33.1 589.4 8.4 589.4 17.7 594.3"/>
        <polygon class="st11" points="48.7 571.2 3.9 571.2 -6.7 565.3 39.2 565.3 48.7 571.2"/>
        <polygon class="st11" points="315.2 594.3 106 594.3 62.1 565.3 298.8 565.3 315.2 594.3"/>
        <polygon class="st9" points="302.9 592.9 115.4 592.9 77.8 567 286.9 567 302.9 592.9"/>
        <polygon class="st11" points="61.9 579.4 18.6 579.4 8.7 573.9 53 573.9 61.9 579.4"/>
        <polygon class="st11" points="74.2 587.1 32.3 587.1 23.1 581.9 65.9 581.9 74.2 587.1"/>
        <polygon class="st11" points="85.8 594.3 45.2 594.3 36.5 589.4 78 589.4 85.8 594.3"/>
        <polygon class="st11" points="1207.8 571.2 1252.6 571.2 1272.3 565.3 1226.4 565.3 1207.8 571.2"/>
        <polygon class="st11" points="1181.9 579.4 1225.2 579.4 1243.7 573.9 1199.4 573.9 1181.9 579.4"/>
        <polygon class="st11" points="1157.8 587.1 1199.7 587.1 1216.9 581.9 1174.1 581.9 1157.8 587.1"/>
        <polygon class="st11" points="1135.2 594.3 1175.7 594.3 1191.9 589.4 1150.5 589.4 1135.2 594.3"/>
        <polygon class="st11" points="1132.6 571.2 1177.4 571.2 1195.3 565.3 1149.4 565.3 1132.6 571.2"/>
        <polygon class="st11" points="1109.3 579.4 1152.6 579.4 1169.3 573.9 1125 573.9 1109.3 579.4"/>
        <polygon class="st11" points="1087.5 587.1 1129.4 587.1 1145 581.9 1102.2 581.9 1087.5 587.1"/>
        <polygon class="st11" points="1067.1 594.3 1107.6 594.3 1122.3 589.4 1080.9 589.4 1067.1 594.3"/>
        <polygon class="st11" points="1057.4 571.2 1102.2 571.2 1118.3 565.3 1072.4 565.3 1057.4 571.2"/>
        <polygon class="st11" points="1036.6 579.4 1079.9 579.4 1094.9 573.9 1050.6 573.9 1036.6 579.4"/>
        <polygon class="st11" points="1017.2 587.1 1059.1 587.1 1073.1 581.9 1030.3 581.9 1017.2 587.1"/>
        <polygon class="st11" points="999 594.3 1039.6 594.3 1052.7 589.4 1011.3 589.4 999 594.3"/>
        <polygon class="st11" points="982.2 571.2 1027 571.2 1041.3 565.3 995.4 565.3 982.2 571.2"/>
        <polygon class="st11" points="963.9 579.4 1007.2 579.4 1020.6 573.9 976.2 573.9 963.9 579.4"/>
        <polygon class="st11" points="946.9 587.1 988.8 587.1 1001.2 581.9 958.4 581.9 946.9 587.1"/>
        <polygon class="st11" points="930.9 594.3 971.5 594.3 983.2 589.4 941.7 589.4 930.9 594.3"/>
        <polygon class="st11" points="907 571.2 951.8 571.2 964.2 565.3 918.3 565.3 907 571.2"/>
        <polygon class="st11" points="891.3 579.4 934.6 579.4 946.2 573.9 901.9 573.9 891.3 579.4"/>
        <polygon class="st11" points="876.6 587.1 918.5 587.1 929.3 581.9 886.5 581.9 876.6 587.1"/>
        <polygon class="st11" points="862.8 594.3 903.4 594.3 913.6 589.4 872.1 589.4 862.8 594.3"/>
        <polygon class="st11" points="831.8 571.2 876.6 571.2 887.2 565.3 841.3 565.3 831.8 571.2"/>
        <polygon class="st11" points="565.3 594.3 774.5 594.3 818.4 565.3 581.7 565.3 565.3 594.3"/>
        <polygon class="st9" points="577.6 592.9 765.1 592.9 802.7 567 593.6 567 577.6 592.9"/>
        <polygon class="st11" points="818.6 579.4 861.9 579.4 871.8 573.9 827.5 573.9 818.6 579.4"/>
        <polygon class="st11" points="806.3 587.1 848.2 587.1 857.4 581.9 814.6 581.9 806.3 587.1"/>
        <polygon class="st11" points="794.7 594.3 835.3 594.3 844 589.4 802.5 589.4 794.7 594.3"/>
        <path class="st8" d="M-306.6,601.8h1484.2v148.5H-303s-3.6-136.3-3.6-148.5h0Z"/>
        <rect class="st14" x="-262.2" y="643.2" width="490.6" height="4.4"/>
        <rect class="st14" x="-262.2" y="675.7" width="490.6" height="4.4"/>
        <rect class="st14" x="-262.2" y="708.3" width="490.6" height="4.4"/>
        <rect class="st14" x="633.6" y="643.2" width="490.6" height="4.4"/>
        <rect class="st14" x="633.6" y="675.7" width="490.6" height="4.4"/>
        <rect class="st14" x="633.6" y="708.3" width="490.6" height="4.4"/>
        <path class="st14" d="M616.3,736.1H254.7v-113.2h361.6v113.2ZM259,732.4h352.9v-106h-352.9v106Z"/>
        <rect class="st13" x="273.7" y="637.6" width="17.7" height="14.8"/>
        <rect class="st13" x="488.1" y="711.5" width="17.7" height="14.8"/>
        <rect class="st13" x="519.1" y="711.5" width="17.7" height="14.8"/>
        <rect class="st13" x="550.1" y="711.5" width="17.7" height="14.8"/>
        <rect class="st13" x="581.1" y="711.5" width="17.7" height="14.8"/>
        <rect class="st13" x="488.1" y="635.4" width="17.7" height="14.8"/>
        <rect class="st13" x="519.1" y="635.4" width="17.7" height="14.8"/>
        <rect class="st13" x="550.1" y="635.4" width="17.7" height="14.8"/>
        <rect class="st13" x="581.1" y="635.4" width="17.7" height="14.8"/>
        <rect class="st13" x="550.1" y="659" width="17.7" height="14.8"/>
        <rect class="st13" x="581.1" y="659" width="17.7" height="14.8"/>
        <rect class="st13" x="195.1" y="617.4" width="17.7" height="14.8"/>
        <rect class="st13" x="-261.6" y="617.4" width="17.7" height="14.8"/>
        <rect class="st13" x="-224.9" y="617.4" width="17.7" height="14.8"/>
        <rect class="st13" x="-188.3" y="617.4" width="17.7" height="14.8"/>
        <rect class="st13" x="-224.9" y="656.8" width="17.7" height="14.8"/>
        <rect class="st13" x="-188.3" y="656.8" width="17.7" height="14.8"/>
        <rect class="st13" x="-151.7" y="656.8" width="17.7" height="14.8"/>
        <rect class="st13" x="-224.9" y="721.8" width="17.7" height="14.8"/>
        <rect class="st13" x="-188.3" y="721.8" width="17.7" height="14.8"/>
        <rect class="st13" x="-115.1" y="617.4" width="17.7" height="14.8"/>
        <rect class="st13" x="947.1" y="687.8" width="17.7" height="14.8"/>
        <rect class="st13" x="983.7" y="687.8" width="17.7" height="14.8"/>
        <rect class="st13" x="645.8" y="687.8" width="17.7" height="14.8"/>
        <rect class="st13" x="1020.4" y="687.8" width="17.7" height="14.8"/>
        <rect class="st13" x="983.7" y="656.8" width="17.7" height="14.8"/>
        <rect class="st13" x="1020.4" y="656.8" width="17.7" height="14.8"/>
        <rect class="st13" x="1057" y="656.8" width="17.7" height="14.8"/>
        <rect class="st13" x="983.7" y="721.8" width="17.7" height="14.8"/>
        <rect class="st13" x="1020.4" y="721.8" width="17.7" height="14.8"/>
        <rect class="st13" x="1093.6" y="687.8" width="17.7" height="14.8"/>
        <path class="st13" d="M995.4,497.4l-74.4-251-31.1-86.7-10.2-28.3-12.4-34.7-12-54.5c-4.3-12-17.5-20.2-32.4-20.2H75.9c-14.9,0-28.1,8.2-32.4,20.2L-96.7,497.4c-6.5,18.1,9.7,36.4,32.4,36.4H963c22.7,0,38.9-18.3,32.4-36.4h0ZM937,519.4H-38.3c-3,0-5.8-.3-8.5-1-16.5-3.8-27-18.5-21.8-33.1,0,0,98.3-346.6,126.3-429.8,3.8-11.4,16.3-19.3,30.5-19.3h726.4c7.6,0,14.2,4.4,15.8,10.6,5.5,21.5,89.2,259.1,89.2,259.1l47.8,179.4c6.1,17-9.1,34.1-30.3,34.1h0Z"/>
        <polygon class="st13" points="-1881.4 -543.6 -2150.6 -542.6 -2150.6 -542.6 -1881.4 -543.6"/>
        <polygon class="st8" points="-1848.8 684.5 -1848.8 1132.8 -1591.4 1133.9 -1591.4 726.5 -1848.8 684.5"/>
        <polygon class="st14" points="-1457.9 696.9 -1458.9 1072.4 -1590.4 1134.7 -1590.4 727.3 -1457.9 696.9"/>
        <polygon class="st4" points="-1355.3 667.6 -1716.4 768.4 -1867.3 689.3 -1919 662.2 -1552.7 595.1 -1355.3 667.6"/>
        <polygon class="st14" points="-1355.3 667.6 -1355.3 706.7 -1716.4 807.5 -1919 701.3 -1919 662.2 -1867.3 689.3 -1716.4 768.4 -1355.3 667.6"/>
        <polygon class="st0" points="-1716.4 768.4 -1716.4 807.5 -1355.3 706.7 -1355.3 667.6 -1716.4 768.4"/>
        <polygon class="st3" points="-1538.7 704.1 -1711.9 749.1 -1879.7 663 -1707.5 631.1 -1538.7 704.1"/>
        <polygon class="st9" points="-1557.1 702.6 -1711.6 742.8 -1861.3 665.9 -1707.7 637.4 -1557.1 702.6"/>
        <polygon class="st11" points="-1536.4 610 -1675.1 636.8 -1694.2 628.6 -1555.4 602.9 -1536.4 610"/>
        <polygon class="st7" points="-1622.1 648.5 -1639.2 652.1 -1660.1 643.2 -1643 639.8 -1622.1 648.5"/>
        <polygon class="st11" points="-1589.7 641.8 -1606.1 645.2 -1626.9 636.6 -1610.6 633.3 -1589.7 641.8"/>
        <polygon class="st11" points="-1558.7 635.4 -1574.4 638.6 -1595.2 630.3 -1579.5 627.1 -1558.7 635.4"/>
        <polygon class="st13" points="-1529 629.2 -1544 632.3 -1564.7 624.2 -1549.7 621.2 -1529 629.2"/>
        <polygon class="st13" points="-1500.5 623.3 -1514.9 626.2 -1535.6 618.4 -1521.2 615.5 -1500.5 623.3"/>
        <polygon class="st11" points="-1585.9 663.8 -1603 667.6 -1624.8 658.2 -1607.8 654.6 -1585.9 663.8"/>
        <polygon class="st11" points="-1553.6 656.5 -1569.9 660.2 -1591.7 651.1 -1575.4 647.7 -1553.6 656.5"/>
        <polygon class="st11" points="-1522.7 649.6 -1538.3 653.1 -1560 644.4 -1544.4 641 -1522.7 649.6"/>
        <polygon class="st11" points="-1493.1 643 -1508.1 646.3 -1529.7 637.9 -1514.8 634.7 -1493.1 643"/>
        <polygon class="st11" points="-1464.8 636.7 -1479.1 639.9 -1500.7 631.7 -1486.3 628.6 -1464.8 636.7"/>
        <polygon class="st11" points="-1548 679.7 -1565 683.8 -1587.9 674 -1570.9 670.1 -1548 679.7"/>
        <polygon class="st11" points="-1515.9 671.9 -1532.1 675.8 -1554.9 666.4 -1538.6 662.6 -1515.9 671.9"/>
        <polygon class="st11" points="-1485.1 664.5 -1500.6 668.2 -1523.3 659.1 -1507.8 655.5 -1485.1 664.5"/>
        <polygon class="st11" points="-1455.7 657.4 -1470.5 661 -1493.1 652.2 -1478.3 648.7 -1455.7 657.4"/>
        <polygon class="st11" points="-1427.5 650.6 -1441.7 654 -1464.2 645.5 -1450 642.2 -1427.5 650.6"/>
        <polygon class="st13" points="-1508.3 696.4 -1525.2 700.8 -1549.2 690.5 -1532.3 686.3 -1508.3 696.4"/>
        <polygon class="st11" points="-1476.3 688 -1492.4 692.2 -1516.3 682.3 -1500.1 678.3 -1476.3 688"/>
        <polygon class="st11" points="-1445.7 680.1 -1461.1 684.1 -1484.9 674.5 -1469.5 670.7 -1445.7 680.1"/>
        <polygon class="st11" points="-1416.6 672.5 -1431.3 676.3 -1454.9 667.1 -1440.1 663.4 -1416.6 672.5"/>
        <polygon class="st5" points="-1388.6 665.2 -1402.7 668.9 -1426.2 659.9 -1412.1 656.4 -1388.6 665.2"/>
        <polygon class="st8" points="2717.6 685.3 2717.6 1133.7 2460.2 1134.7 2460.2 727.3 2717.6 685.3"/>
        <polygon class="st14" points="2327.7 696.9 2328.7 1072.4 2460.2 1134.7 2460.2 727.3 2327.7 696.9"/>
        <polygon class="st4" points="2225.1 667.6 2586.2 768.4 2737.1 689.3 2788.9 662.2 2422.6 595.1 2225.1 667.6"/>
        <polygon class="st14" points="2225.1 667.6 2225.1 706.7 2586.2 807.5 2788.9 701.3 2788.9 662.2 2737.1 689.3 2586.2 768.4 2225.1 667.6"/>
        <polygon class="st0" points="2586.2 768.4 2586.2 807.5 2225.1 706.7 2225.1 667.6 2586.2 768.4"/>
        <polygon class="st3" points="2394.4 702.7 2258.5 665.9 2421.7 603.2 2563.8 629.7 2394.4 702.7"/>
        <polygon class="st9" points="2394.2 696.4 2271.5 664.3 2418.8 607.9 2543.1 632.1 2394.2 696.4"/>
        <polygon class="st11" points="2740 676.2 2558.2 640.7 2577.6 632.2 2759.6 666.2 2740 676.2"/>
        <polygon class="st11" points="2540.2 660.5 2521.8 656.6 2542.9 647.4 2561.3 651.1 2540.2 660.5"/>
        <polygon class="st11" points="2577.7 668.5 2558.3 664.3 2579.5 654.8 2599 658.7 2577.7 668.5"/>
        <polygon class="st11" points="2617.3 676.9 2596.8 672.5 2618.2 662.6 2638.7 666.7 2617.3 676.9"/>
        <polygon class="st5" points="2659.2 685.7 2637.5 681.1 2658.9 670.8 2680.6 675.2 2659.2 685.7"/>
        <polygon class="st11" points="2703.6 695.1 2680.6 690.3 2702.1 679.6 2725 684.2 2703.6 695.1"/>
        <polygon class="st11" points="2503.5 676.7 2485.3 672.5 2507.3 662.9 2525.6 667 2503.5 676.7"/>
        <polygon class="st11" points="2540.8 685.3 2521.6 680.9 2543.7 670.9 2563 675.2 2540.8 685.3"/>
        <polygon class="st11" points="2580.3 694.4 2559.9 689.7 2582.1 679.3 2602.6 683.8 2580.3 694.4"/>
        <polygon class="st11" points="2622 704 2600.4 699 2622.8 688.2 2644.4 693 2622 704"/>
        <polygon class="st11" points="2666.3 714.2 2643.4 708.9 2665.9 697.7 2688.8 702.7 2666.3 714.2"/>
        <polygon class="st11" points="2465.3 693.7 2447.2 689.2 2470.1 679.2 2488.3 683.5 2465.3 693.7"/>
        <polygon class="st11" points="2502.3 702.9 2483.2 698.2 2506.3 687.8 2525.5 692.3 2502.3 702.9"/>
        <polygon class="st11" points="2541.5 712.7 2521.3 707.7 2544.5 696.8 2564.9 701.7 2541.5 712.7"/>
        <polygon class="st11" points="2583.1 723.1 2561.6 717.7 2585 706.5 2606.6 711.6 2583.1 723.1"/>
        <polygon class="st11" points="2627.3 734.1 2604.4 728.4 2627.9 716.6 2650.8 722.1 2627.3 734.1"/>
        <polygon class="st11" points="2425.4 711.4 2407.4 706.5 2431.4 696.1 2449.4 700.7 2425.4 711.4"/>
        <polygon class="st11" points="2462.1 721.3 2443.1 716.2 2467.3 705.3 2486.3 710.2 2462.1 721.3"/>
        <polygon class="st11" points="2501 731.9 2480.9 726.4 2505.2 715.1 2525.4 720.3 2501 731.9"/>
        <polygon class="st11" points="2542.3 743.1 2521 737.3 2545.5 725.5 2566.9 731 2542.3 743.1"/>
        <polygon class="st11" points="2586.3 755 2563.6 748.9 2588.2 736.5 2611 742.4 2586.3 755"/>
        <polygon class="st10" points="-1324.8 644.6 -963.9 -183.3 -957 -181.2 -1317.8 646.7 -1324.8 644.6"/>
        <polygon class="st10" points="1830.1 -181.4 1837 -183.5 2197.8 644.4 2190.9 646.5 1830.1 -181.4"/>
        <polygon class="st6" points="-791 -104.2 -1037.6 564.8 -586.1 519.5 -791 -104.2"/>
        <polygon class="st6" points="1575.3 -62.3 1278.4 481.1 1834.5 554.3 1575.3 -62.3"/>
      </g>
    </g>
  </g>
</svg>